# xmcd CD database file
#
# Track frame offsets:
#	150
#	16342
#	32599
#	46301
#	62616
#	85475
#	102230
#
# Disc length: 1664 seconds
#
# Revision: 0
# Processed by: cddbd v1.5.1PL0 Copyright (c) Steve Scherf et al.
# Submitted via: CDex 1.51
#
DISCID=4f067e07
DTITLE=Rock and Learn - Addition and Subtraction Country
DYEAR=1994
DGENRE=Country
TTITLE0=Up tp 10
TTITLE1=Keep subtracting, Pardner
TTITLE2=Plus Minus Boggie
TTITLE3=Big Country Add
TTITLE4=Havin' Fun at the Math Rodeo
TTITLE5=The Country Way
TTITLE6=Classroom Cowboy
EXTD=YEAR: 1994
EXTT0=
EXTT1=
EXTT2=
EXTT3=
EXTT4=
EXTT5=
EXTT6=
PLAYORDER=
